<?xml version="1.0" encoding="utf-8"?>
<!-- Generator: Adobe Illustrator 25.4.1, SVG Export Plug-In . SVG Version: 6.00 Build 0)  -->
<svg version="1.1" id="b0be4804-10ca-4842-b31b-b943f29dadcb"
	 xmlns="http://www.w3.org/2000/svg" xmlns:xlink="http://www.w3.org/1999/xlink" x="0px" y="0px" viewBox="0 0 436 313"
	 style="enable-background:new 0 0 436 313;" xml:space="preserve">
<style type="text/css">
	.st0{fill:#E6E6E6;}
	.st1{fill:#E5575E;}
</style>
<rect y="233" class="st0" width="436" height="2"/>
<rect y="155" class="st0" width="436" height="2"/>
<rect y="77" class="st0" width="436" height="2"/>
<rect x="347.8" y="0" class="st0" width="2" height="312"/>
<rect x="260.6" y="0" class="st0" width="2" height="312"/>
<rect x="173.4" y="0" class="st0" width="2" height="312"/>
<rect x="86.2" y="0" class="st0" width="2" height="312"/>
<rect x="87" y="78" class="st1" width="175" height="78"/>
<path class="st1" d="M174.9,150.1"/>
<polygon class="st1" points="87,150 87,234 178,153 "/>
<path class="st1" d="M262,153v3l-1.1,1l-2.3,2c-44.7,1.4-80.9,33.4-82.5,73.1l-2,1.8l0,0v-84L262,153z"/>
<path class="st0" d="M261.5,157c-0.2,0-0.4,0-0.6,0c-47.6,0.3-86.2,34.6-86.8,77c0,0.3,0,0.7,0,1c0,43,39.2,78,87.5,78
	s87.5-35,87.5-78S309.8,157,261.5,157z M261.5,311c-47.1,0-85.5-34.1-85.5-76c0-1,0-1.9,0.1-2.8c1.6-39.7,37.8-71.8,82.5-73.1
	c1,0,1.9,0,2.9,0c47.1,0,85.5,34.1,85.5,76S308.6,311,261.5,311z"/>
<path class="st0" d="M213.5,234l-5,0c0-0.4,0.8-44.5,52-47.5l0.3,5C214.4,194.2,213.5,232.4,213.5,234z"/>
<path class="st0" d="M312,233c-0.4-11.5-5.4-22.4-14-30.1c-9.9-9.1-22.9-14-36.4-14h-0.1c-27.5,0-49.9,19.7-50.5,44.1
	c0,0.3,0,0.7,0,1c0,12.8,6,24.3,15.5,32.5c9.8,8.2,22.2,12.7,35,12.6h0.1c27.8,0,50.4-20.2,50.4-45.1C312,233.7,312,233.3,312,233z"
	/>
<path class="st1" d="M298,202.9l-1.5,1.3L228,265.2l-1.5,1.3C217,258.3,211,246.8,211,234c0-0.3,0-0.7,0-1
	c0.6-24.4,23-44.1,50.5-44.1h0.1C275.1,188.8,288.1,193.8,298,202.9z"/>
</svg>
