<?xml version="1.0" encoding="utf-8"?>
<!-- Generator: Adobe Illustrator 25.4.1, SVG Export Plug-In . SVG Version: 6.00 Build 0)  -->
<svg version="1.1" id="ba5bbdf1-ea7e-4527-9dc4-6b83a9019784"
	 xmlns="http://www.w3.org/2000/svg" xmlns:xlink="http://www.w3.org/1999/xlink" x="0px" y="0px" viewBox="0 0 846.7 496.2"
	 style="enable-background:new 0 0 846.7 496.2;" xml:space="preserve">
<style type="text/css">
	.st0{fill:#FF6584;}
	.st1{fill:#E5575E;}
	.st2{fill:#3F3D56;}
	.st3{fill:#F2F2F2;}
	.st4{fill:#2F2E41;}
	.st5{opacity:0.1;enable-background:new    ;}
	.st6{fill:#FFB8B8;}
	.st7{fill:#A0616A;}
	.st8{fill:#E89191;}
	.st9{opacity:0.1;fill:#FFB8B8;enable-background:new    ;}
	.st10{fill:#575A89;}
</style>
<circle class="st0" cx="265.1" cy="216.9" r="37.5"/>
<path class="st1" d="M497.6,259.4c0,73.9-43.9,99.7-98.1,99.7s-98.1-25.8-98.1-99.7s98.1-167.8,98.1-167.8S497.6,185.5,497.6,259.4z
	"/>
<polygon class="st2" points="395.9,347.7 396.9,286 438.7,209.5 397.1,276.2 397.6,248.4 426.3,193.1 397.6,241.1 397.6,241.1 
	398.4,191.1 429.3,147 398.6,183.2 399.1,91.5 395.9,212.9 396.2,207.9 364.8,159.8 395.6,217.5 392.7,273.3 392.6,271.8 
	356.5,221.3 392.5,277.1 392.2,284 392.1,284.2 392.2,284.7 384.7,426.4 394.6,426.4 395.8,353.2 431.8,297.6 "/>
<path class="st2" d="M592.2,329.2c0,73.9-43.9,99.7-98.1,99.7s-98.1-25.8-98.1-99.7s98.1-167.8,98.1-167.8S592.2,255.3,592.2,329.2z
	"/>
<polygon class="st3" points="490.5,417.5 491.6,355.7 533.3,279.2 491.7,346 492.2,318.2 521,262.8 492.3,310.8 492.3,310.8 
	493.1,260.9 523.9,216.8 493.2,253 493.7,161.3 490.5,282.7 490.8,277.6 459.4,229.6 490.3,287.2 487.4,343.1 487.3,341.6 
	451.1,291.1 487.2,346.9 486.8,353.8 486.7,353.9 486.8,354.5 479.4,496.2 489.2,496.2 490.5,423 526.5,367.4 "/>
<path class="st2" d="M407.8,329.2c0,73.9-43.9,99.7-98.1,99.7s-98.1-25.8-98.1-99.7s98.1-167.9,98.1-167.9S407.8,255.3,407.8,329.2z
	"/>
<polygon class="st3" points="306.1,417.5 307.1,355.7 349,279.2 307.3,346 307.7,318.2 336.5,262.8 307.8,310.8 307.8,310.8 
	308.7,260.9 339.5,216.8 308.8,253 309.3,161.3 306.1,282.7 306.3,277.6 275,229.6 305.9,287.2 302.9,343.1 302.9,341.6 
	266.7,291.1 302.7,346.9 302.4,353.8 302.3,353.9 302.3,354.5 294.9,496.2 304.8,496.2 306,423 342,367.4 "/>
<path class="st4" d="M402,495.6c-112,0-202.8-90.8-202.8-202.8S290,90,402,90s202.8,90.8,202.8,202.8c0,53.8-21.3,105.4-59.4,143.4
	C507.4,474.3,455.8,495.7,402,495.6z M402,91.5c-111,0-201.2,90.3-201.2,201.2S291,494,402,494s201.2-90.3,201.2-201.2
	S513,91.5,402,91.5L402,91.5z"/>
<polygon class="st3" points="567.8,408.4 567.8,494.8 236.2,494.8 236.2,408.4 402,322.1 402.3,322.3 "/>
<polygon class="st5" points="567.8,408.4 567.8,494.8 402.3,494.8 402.3,322.3 "/>
<polygon class="st2" points="387.8,375 375.4,379.7 375.4,361.1 387.8,355.7 "/>
<polygon class="st2" points="250.4,426.8 246.2,428.3 246.2,417.1 250.4,415.3 "/>
<polygon class="st2" points="264.9,421.9 260.1,423.8 260.1,411.6 264.9,409.5 "/>
<polygon class="st2" points="280.8,415.7 275.3,417.8 275.3,404.7 280.8,402.2 "/>
<polygon class="st2" points="300.1,408.1 293.2,410.8 293.2,397.1 300.1,394.1 "/>
<polygon class="st2" points="323.6,399.2 315.3,402.2 315.3,387.4 323.6,383.8 "/>
<polygon class="st2" points="351.9,388.8 342.3,392.4 342.3,375.7 351.9,371.4 "/>
<polygon class="st2" points="250.4,449.5 246.2,450.6 246.2,439.2 250.4,437.9 "/>
<polygon class="st2" points="264.9,446.1 260.1,447.3 260.1,435 264.9,433.5 "/>
<polygon class="st2" points="280.8,442 275.3,443.3 275.3,430.3 280.8,428.5 "/>
<polygon class="st2" points="300.1,437.1 293.2,438.8 293.2,424.7 300.1,422.6 "/>
<polygon class="st2" points="323.6,430.9 315.3,433 315.3,417.8 323.6,415.2 "/>
<polygon class="st2" points="351.9,424 341.5,426.6 341.5,409.5 351.9,406.3 "/>
<polygon class="st2" points="387.8,415.1 375.4,418.1 375.4,399.2 387.8,395.2 "/>
<polygon class="st2" points="387.8,454.4 375.4,456 375.4,437.1 387.8,434.8 "/>
<polygon class="st2" points="250.4,471.7 246.2,472.2 246.2,461.3 250.4,460.5 "/>
<polygon class="st2" points="264.9,470.3 260.1,470.9 260.1,459.2 264.9,458.3 "/>
<polygon class="st2" points="280.8,468.2 275.3,468.9 275.3,455.8 280.8,454.7 "/>
<polygon class="st2" points="300.1,465.4 293.2,466.3 293.2,452.3 300.1,451 "/>
<polygon class="st2" points="323.6,462.7 315.3,463.7 315.3,448.2 323.6,446.6 "/>
<polygon class="st2" points="351.9,459.2 341.5,460.5 341.5,443.3 351.9,441.4 "/>
<polygon class="st2" points="554.3,426.8 558.4,428.3 558.4,417.1 554.3,415.3 "/>
<polygon class="st2" points="539.8,421.9 544.7,423.8 544.7,411.6 539.8,409.5 "/>
<polygon class="st2" points="523.9,415.7 529.5,417.8 529.5,404.7 523.9,402.2 "/>
<polygon class="st2" points="504.6,408.1 511.5,410.8 511.5,397.1 504.6,394.1 "/>
<polygon class="st2" points="481.1,399.2 489.4,402.2 489.4,387.4 481.1,383.8 "/>
<polygon class="st2" points="452.8,388.8 462.4,392.4 462.4,375.7 452.8,371.4 "/>
<polygon class="st2" points="554.3,449.5 558.4,450.6 558.4,439.2 554.3,437.9 "/>
<polygon class="st2" points="539.8,446.1 544.7,447.3 544.7,435 539.8,433.5 "/>
<polygon class="st2" points="523.9,442 529.5,443.3 529.5,430.3 523.9,428.5 "/>
<polygon class="st2" points="504.6,437.1 511.5,438.8 511.5,424.7 504.6,422.6 "/>
<polygon class="st2" points="481.1,430.9 489.4,433 489.4,417.8 481.1,415.2 "/>
<polygon class="st2" points="452.8,424 463.1,426.6 463.1,409.5 452.8,406.3 "/>
<polygon class="st2" points="416.8,415.1 429.2,418.1 429.2,399.2 416.8,395.2 "/>
<polygon class="st2" points="416.8,454.4 429.2,456 429.2,437.1 416.8,434.8 "/>
<polygon class="st2" points="554.3,471.7 558.4,472.2 558.4,461.3 554.3,460.5 "/>
<polygon class="st2" points="539.8,470.3 544.7,470.9 544.7,459.2 539.8,458.3 "/>
<polygon class="st2" points="523.9,468.2 529.5,468.9 529.5,455.8 523.9,454.7 "/>
<polygon class="st2" points="504.6,465.4 511.5,466.3 511.5,452.3 504.6,451 "/>
<polygon class="st2" points="481.1,462.7 489.4,463.7 489.4,448.2 481.1,446.6 "/>
<polygon class="st2" points="452.8,459.2 463.1,460.5 463.1,443.3 452.8,441.4 "/>
<polygon class="st2" points="428.6,379.8 416.2,375.1 416.2,355.6 428.6,361.1 "/>
<rect x="544.3" y="479.4" class="st4" width="1" height="16.2"/>
<rect x="556.6" y="483.8" class="st4" width="0.7" height="11.5"/>
<rect x="567.3" y="485.3" class="st4" width="0.6" height="10.1"/>
<polygon class="st2" points="515.6,474.3 515.6,495.1 502.2,495.1 488.7,495.1 488.7,471.7 502.2,473 "/>
<polygon class="st2" points="289,495.1 316,495.1 316,471.7 289,474.3 "/>
<rect x="122.2" y="494.5" class="st4" width="603.6" height="1.4"/>
<polygon class="st5" points="515.6,474.3 515.6,495.1 502.2,495.1 502.2,473 "/>
<rect x="399.3" y="476.1" class="st4" width="1.4" height="19.4"/>
<path class="st1" d="M407.9,469.2c0,6.7-3.6,12.4-8,12.6c-4.2,0.2-7.6-4.9-7.6-11.3s8.2-24.1,8.2-24.1S407.9,462.5,407.9,469.2z"/>
<rect x="237.2" y="482.3" class="st4" width="0.8" height="11.5"/>
<path class="st1" d="M242.4,478.2c0,4-2.2,7.4-4.8,7.5c-2.5,0.1-4.5-2.9-4.5-6.7c0-3.8,4.9-14.4,4.9-14.4S242.4,474.2,242.4,478.2z"
	/>
<path class="st1" d="M550.4,480.1c0,3.8-2.5,6.8-5.6,6.7c-3.3-0.1-6.2-3.7-6.2-8s6.2-15,6.2-15S550.4,476.2,550.4,480.1z"/>
<path class="st1" d="M560.9,484.3c0,2.7-1.7,4.8-4,4.8c-2.4-0.1-4.4-2.7-4.4-5.7s4.4-10.6,4.4-10.6S560.9,481.6,560.9,484.3z"/>
<path class="st1" d="M571,485.7c0,2.4-1.5,4.3-3.5,4.2c-2.1-0.1-3.9-2.3-3.9-5s3.9-9.3,3.9-9.3S571,483.3,571,485.7z"/>
<path class="st6" d="M575.9,111.3c0,0-6.7,20.2-3,24.7c3.7,4.5-22.4-13.4-22.4-13.4l14.2-16.4L575.9,111.3z"/>
<circle class="st4" cx="560.6" cy="77.7" r="33.5"/>
<polygon class="st7" points="691,338.4 673.8,351.9 664.1,336.1 681.3,324.2 "/>
<path class="st4" d="M666.7,439.6l4.5,21.7l12.7,17.2c0,0,34.4,10.4,11.2,15.7c-23.2,5.2-28.4-3.7-28.4-3.7l-16.4-14.2v19.4h-10.4
	l-2.2-27.7c0,0-1.5-8.2,5.2-17.2l1.5-13.4L666.7,439.6z"/>
<path class="st8" d="M580,171.4l6,34.4c0,0,63.5-6.7,68,6c4.4,12.7,6,16.4,6,16.4l-12.7,4.5l-6-11.2c-3.7-1.3-7.7-1-11.2,0.7
	c-6,3-58.3,10.4-62,0.7c-3.7-9.7-14.2-45.6-14.2-45.6l15.7-12.7L580,171.4z"/>
<path class="st9" d="M580,171.4l6,34.4c0,0,63.5-6.7,68,6c4.4,12.7,6,16.4,6,16.4l-12.7,4.5l-6-11.2c-3.7-1.3-7.7-1-11.2,0.7
	c-6,3-58.3,10.4-62,0.7c-3.7-9.7-14.2-45.6-14.2-45.6l15.7-12.7L580,171.4z"/>
<path class="st4" d="M615.2,270.8l5.2,17.9l13.4,68.7c0,0,1.5,50.8,3.7,56.8c2.2,6,2.2,6.7,0,9c-2.2,2.2-6.7,9.7,0,14.2
	c6.7,4.5,30.6,9.7,31.4,4.5c0.7-5.2,0.7-13.4,0-17.2c-0.7-3.7,2.2-62,2.2-62l-9-88.9l-30.6-14.2L615.2,270.8z"/>
<path class="st5" d="M615.2,270.8l5.2,17.9l13.4,68.7c0,0,1.5,50.8,3.7,56.8c2.2,6,2.2,6.7,0,9c-2.2,2.2-6.7,9.7,0,14.2
	c6.7,4.5,30.6,9.7,31.4,4.5c0.7-5.2,0.7-13.4,0-17.2c-0.7-3.7,2.2-62,2.2-62l-9-88.9l-30.6-14.2L615.2,270.8z"/>
<path class="st4" d="M647.3,200.5l16.4,31.4c0,0,94.1,41.9,85.9,59s-53.8,49.3-53.8,49.3s-2.2,12.7-9,9
	c-6.7-3.7-23.2-23.2-21.7-25.4s6.7-7.5,9-6.7s28.4-19.4,28.4-19.4l-44.9-11.2c0,0-53.8-1.5-56.8-26.9c-3-25.4,0-29.9,0-29.9
	l-3.7-8.2l30.6-18.7L647.3,200.5z"/>
<path class="st4" d="M670.5,324.5l-15.7,14.2c0,0-13.4-6-21.7-3.7c-8.2,2.2-22.4,3.7-22.4,3.7l2.2,12.7l19.1-3.5l-15.3,21.5
	c0,0,0,33.6,9.7,33.6s6.7-20.2,6.7-20.2l29.9-23.2c0,0,14.9-6,16.4-6C680.9,353.6,670.5,324.5,670.5,324.5z"/>
<circle class="st6" cx="572.9" cy="91.9" r="25.4"/>
<path class="st10" d="M547.9,111.7c0,0,11.9-3,15.7,0c3.7,3,4.5,9.7,9.7,10.4s9.7,0.7,10.4,1.5c0.7,0.7,17.9,21.7,17.9,21.7
	s10.4,6,12.7,14.2c2.2,8.2,24.7,35.9,27.7,38.9c3,3-19.4,17.9-26.9,23.2S586,229,579.2,217S536,127.3,547.9,111.7z"/>
<path class="st6" d="M576.3,160.2l6,34.4c0,0,63.5-6.7,68,6c4.4,12.7,6,16.4,6,16.4l-12.7,4.5l-6-11.2c-3.7-1.3-7.7-1-11.2,0.7
	c-6,3-58.3,10.4-62,0.7c-3.7-9.7-14.2-45.6-14.2-45.6l15.7-12.7L576.3,160.2z"/>
<path class="st10" d="M562,114.8c0,0,18,38,16.5,48.4s-6.7,3-6.7,3s-6.7-10.4-9.7-4.5c-2.9,5.9-6.7,14.2-9.7,13.4
	c-2.9-0.7-19.4-56-10.4-61.3C551,108.6,562,114.8,562,114.8z"/>
<circle class="st4" cx="524.3" cy="33.5" r="33.5"/>
<path class="st4" d="M495.4,61.3c15,10.8,36,7.5,46.8-7.6c2.2-3.1,3.9-6.5,5-10.1c-2.3,18.4-19.1,31.4-37.5,29.1
	c-18.4-2.3-31.4-19.1-29.1-37.5c0.2-1.8,0.6-3.6,1.2-5.4C480.2,42.1,485.4,54.1,495.4,61.3z"/>
<circle class="st4" cx="553.7" cy="83.3" r="24.6"/>
<ellipse class="st4" cx="572.3" cy="74.1" rx="21.8" ry="17"/>
<ellipse class="st6" cx="573.4" cy="94.5" rx="4.8" ry="8.6"/>
<path class="st4" d="M640,221.1c0,0,13.2-7.6,15.7-5.7s3.5,7.8,3.5,7.8l-15.3,6l-4.5-8.2L640,221.1z"/>
</svg>
